<svg xmlns="http://www.w3.org/2000/svg" width="23.211" height="19.891" viewBox="0 0 23.211 19.891">
  <path id="Icon_ionic-md-eye-off" data-name="Icon ionic-md-eye-off" d="M13.858,8.685a5.261,5.261,0,0,1,5.278,5.237,5.037,5.037,0,0,1-.378,1.917l3.082,3.056a12.383,12.383,0,0,0,3.621-4.973A12.5,12.5,0,0,0,9.647,6.8l2.279,2.264A5.219,5.219,0,0,1,13.858,8.685ZM3.307,5.831,5.715,8.219,6.2,8.7A12.324,12.324,0,0,0,2.25,13.922a12.518,12.518,0,0,0,16.228,6.972l.445.44,3.092,3.056,1.342-1.331L4.643,4.5Zm5.833,5.786,1.637,1.621a2.967,2.967,0,0,0-.083.679,3.149,3.149,0,0,0,3.165,3.139,2.977,2.977,0,0,0,.684-.083l1.637,1.621a5.251,5.251,0,0,1-7.6-4.683A5.174,5.174,0,0,1,9.139,11.617Zm4.548-.813,3.325,3.3.021-.166A3.149,3.149,0,0,0,13.868,10.8Z" transform="translate(-2.25 -4.5)" fill="#c1c1c1"/>
</svg>
