<svg xmlns="http://www.w3.org/2000/svg" width="23.211" height="15.958" viewBox="0 0 23.211 15.958">
  <g id="eye-fill" transform="translate(0 -7.5)">
    <g id="Groupe_2770" data-name="Groupe 2770" transform="translate(0 7.5)">
      <path id="Tracé_980" data-name="Tracé 980" d="M23.754,20.127A3.627,3.627,0,1,1,20.127,16.5a3.627,3.627,0,0,1,3.627,3.627Z" transform="translate(-8.521 -12.148)" fill="#c1c1c1"/>
      <path id="Tracé_981" data-name="Tracé 981" d="M0,15.479S4.352,7.5,11.606,7.5s11.606,7.979,11.606,7.979-4.352,7.979-11.606,7.979S0,15.479,0,15.479Zm11.606,5.077a5.077,5.077,0,1,0-5.077-5.077A5.077,5.077,0,0,0,11.606,20.556Z" transform="translate(0 -7.5)" fill="#c1c1c1"/>
    </g>
  </g>
</svg>
